name C:\Users\r0593348\3dpredictsim\Results\Batchsim_tmt_linear\Pog_s1_tmt_bCst_d05_k1000_ig24_pas.mot
datacolumns 128
datarows 4
range 1.65775850 1.69091367
endheader
time	pelvis_tilt	pelvis_list	pelvis_rotation	pelvis_tx	pelvis_ty	pelvis_tz	hip_flexion_l	hip_adduction_l	hip_rotation_l	hip_flexion_r	hip_adduction_r	hip_rotation_r	knee_angle_l	knee_angle_r	ankle_angle_l	ankle_angle_r	subtalar_angle_l	subtalar_angle_r	tmt_angle_l	tmt_angle_r	mtp_angle_l	mtp_angle_r	lumbar_extension	lumbar_bending	lumbar_rotation	arm_flex_l	arm_add_l	arm_rot_l	arm_flex_r	arm_add_r	arm_rot_r	elbow_flex_l	elbow_flex_r	pro_sup_l	pro_sup_r	glut_med1_l/activation	glut_med2_l/activation	glut_med3_l/activation	glut_min1_l/activation	glut_min2_l/activation	glut_min3_l/activation	semimem_l/activation	semiten_l/activation	bifemlh_l/activation	bifemsh_l/activation	sar_l/activation	add_long_l/activation	add_brev_l/activation	add_mag1_l/activation	add_mag2_l/activation	add_mag3_l/activation	tfl_l/activation	pect_l/activation	grac_l/activation	glut_max1_l/activation	glut_max2_l/activation	glut_max3_l/activation	iliacus_l/activation	psoas_l/activation	quad_fem_l/activation	gem_l/activation	peri_l/activation	rect_fem_l/activation	vas_med_l/activation	vas_int_l/activation	vas_lat_l/activation	med_gas_l/activation	lat_gas_l/activation	soleus_l/activation	tib_post_l/activation	flex_dig_l/activation	flex_hal_l/activation	tib_ant_l/activation	per_brev_l/activation	per_long_l/activation	per_tert_l/activation	ext_dig_l/activation	ext_hal_l/activation	ercspn_l/activation	intobl_l/activation	extobl_l/activation	glut_med1_r/activation	glut_med2_r/activation	glut_med3_r/activation	glut_min1_r/activation	glut_min2_r/activation	glut_min3_r/activation	semimem_r/activation	semiten_r/activation	bifemlh_r/activation	bifemsh_r/activation	sar_r/activation	add_long_r/activation	add_brev_r/activation	add_mag1_r/activation	add_mag2_r/activation	add_mag3_r/activation	tfl_r/activation	pect_r/activation	grac_r/activation	glut_max1_r/activation	glut_max2_r/activation	glut_max3_r/activation	iliacus_r/activation	psoas_r/activation	quad_fem_r/activation	gem_r/activation	peri_r/activation	rect_fem_r/activation	vas_med_r/activation	vas_int_r/activation	vas_lat_r/activation	med_gas_r/activation	lat_gas_r/activation	soleus_r/activation	tib_post_r/activation	flex_dig_r/activation	flex_hal_r/activation	tib_ant_r/activation	per_brev_r/activation	per_long_r/activation	per_tert_r/activation	ext_dig_r/activation	ext_hal_r/activation	ercspn_r/activation	intobl_r/activation	extobl_r/activation	
          1.65775850	         -2.92410906	          2.40376836	         -5.95029398	          2.07219813	          0.85567551	          0.00308802	         32.09704162	          3.29912367	         -2.80615588	        -18.37366928	         -2.04620526	          7.89123045	        -15.86536751	         -8.32458477	          5.65985482	         -0.11447005	         -2.88788396	         11.88409845	          0.03014527	          1.02140993	         -0.11226068	         22.83990308	         -2.26353462	         -1.04407784	          2.00975724	         -9.10636636	        -13.58689115	          8.05545295	          7.97289846	        -13.47895692	         18.11163281	         13.50457883	         38.95359586	         86.51662706	         86.51662706	          0.05000071	          0.05000024	          0.05000034	          0.05000025	          0.05000024	          0.05000056	          0.05920897	          0.05920897	          0.27721657	          0.05000011	          0.05000020	          0.11643470	          0.20935667	          0.16058352	          0.17160555	          0.11859604	          0.05000044	          0.05017946	          0.05920979	          0.05000073	          0.09077163	          0.12020775	          0.05609413	          0.05856765	          0.24290148	          0.05614175	          0.05519685	          0.05866718	          0.15686839	          0.15782464	          0.13296627	          0.05920970	          0.05000067	          0.05920975	          0.05000002	          0.05000043	          0.05000219	          0.54728548	          0.37511974	          0.21322469	          0.31819584	          0.59229013	          0.27301199	          0.06301933	          0.09176743	          0.09480018	          0.25422833	          0.09655925	          0.05586688	          0.32408395	          0.20206456	          0.09832850	          0.05000062	          0.05000009	          0.05000007	          0.07751696	          0.10384696	          0.12984146	          0.05000049	          0.05000030	          0.05000054	          0.05000043	          0.31554468	          0.05698558	          0.05000027	          0.05000133	          0.05000088	          0.05000060	          0.37469586	          0.61173067	          0.05000009	          0.05000024	          0.05000006	          0.21935901	          0.13117647	          0.05004294	          0.05643080	          0.30036644	          0.40667136	          0.27361176	          0.25376374	          0.28091526	          0.35139192	          0.05000000	          0.06941939	          0.18070688	          0.05000004	          0.05000000	          0.05000003	          0.05000000	          0.05000001	          0.05000001	
          1.66881023	         -2.91313156	          2.51218146	         -6.20030012	          2.08919989	          0.85455316	          0.00285854	         31.42576095	          3.73894461	         -2.61387001	        -18.06714813	         -2.35769531	          7.69967951	        -15.72669341	        -10.60899555	          5.11832877	         -1.12161744	         -3.40186717	         12.98564745	          0.04212127	          0.95429109	         -0.10435547	         23.84203391	         -2.04097223	         -1.29516457	          2.10163929	        -10.24888232	        -13.58518176	          7.84016114	          7.67405551	        -13.51024830	         18.25611074	         13.44710958	         40.21647858	         86.51662706	         86.51662706	          0.05000001	          0.05000005	          0.07042018	          0.05000004	          0.05000006	          0.05000009	          0.05000001	          0.05000002	          0.23745008	          0.05000002	          0.05000050	          0.09832402	          0.17679245	          0.33800760	          0.23887997	          0.10503816	          0.05000007	          0.05000087	          0.05000020	          0.05920973	          0.10039903	          0.14044044	          0.05000003	          0.05000017	          0.56407949	          0.12321909	          0.09644338	          0.07011593	          0.24186337	          0.24174459	          0.20659898	          0.05000000	          0.05000000	          0.05000000	          0.05000008	          0.07011445	          0.05000027	          0.64263500	          0.31677194	          0.21732390	          0.53027909	          0.62774836	          0.27664510	          0.05321701	          0.07749349	          0.08005451	          0.21468447	          0.08153998	          0.05915601	          0.27367445	          0.17063450	          0.08303403	          0.05000090	          0.05000008	          0.05000011	          0.06545961	          0.08769418	          0.21041441	          0.16064910	          0.07011812	          0.05000903	          0.05000107	          0.26646346	          0.11304524	          0.05000403	          0.05000071	          0.05000047	          0.05000049	          0.31641390	          0.55023021	          0.05000089	          0.05921072	          0.05920982	          0.18523888	          0.13788271	          0.13788280	          0.13788274	          0.25364602	          0.34341577	          0.23105289	          0.21429215	          0.23722045	          0.29673481	          0.05000000	          0.05862159	          0.15259892	          0.05000002	          0.05000000	          0.05000003	          0.06217432	          0.07011591	          0.05000001	
          1.67986195	         -2.89752488	          2.62102410	         -6.42213868	          2.10646246	          0.85336556	          0.00264365	         30.59717587	          4.10768400	         -2.33457991	        -17.66703924	         -2.65308976	          7.49510382	        -16.07019950	        -13.04668822	          4.59382240	         -2.29598899	         -3.94819996	         14.01553281	         -0.03199866	          0.86876250	         -0.15610561	         24.61929846	         -1.79919944	         -1.54990086	          2.18217908	        -11.38915905	        -13.58851300	          7.68071111	          7.28559388	        -13.54346802	         18.32093152	         13.40636619	         41.46079100	         86.51662706	         86.51662706	          0.30675729	          0.29766989	          0.33377601	          0.05000059	          0.05000020	          0.05000013	          0.09080870	          0.10009191	          0.20758448	          0.05000012	          0.05000027	          0.08303077	          0.20084549	          0.28543236	          0.20182538	          0.15639409	          0.05000012	          0.07011577	          0.14578649	          0.05000005	          0.08478254	          0.11859591	          0.05326811	          0.05000014	          0.47633989	          0.10405304	          0.22873241	          0.05920977	          0.20424282	          0.20414254	          0.17446362	          0.05920977	          0.05920977	          0.05920976	          0.05000003	          0.05920872	          0.05920971	          0.54267654	          0.41356633	          0.20221991	          0.44779726	          0.64052922	          0.23361444	          0.05927732	          0.08303102	          0.06760245	          0.31504855	          0.06885687	          0.05000008	          0.23110605	          0.14409322	          0.07011854	          0.05000067	          0.05000009	          0.05000009	          0.05527773	          0.07405388	          0.18118004	          0.26742553	          0.05921180	          0.05889616	          0.05000082	          0.22501690	          0.09546230	          0.05000113	          0.05000627	          0.05000429	          0.05000369	          0.26719739	          0.49870594	          0.05778395	          0.05000104	          0.05000006	          0.15642595	          0.11643583	          0.11643588	          0.11643583	          0.21419271	          0.28999925	          0.19511382	          0.18096014	          0.20032209	          0.25057929	          0.05000004	          0.05000016	          0.18573037	          0.05000003	          0.11259334	          0.05000009	          0.07748880	          0.05920975	          0.05000003	
          1.69091367	         -2.87933127	          2.72662292	         -6.60925209	          2.12377033	          0.85213950	          0.00241409	         29.64537530	          4.43466868	         -2.03917764	        -17.14660960	         -2.92470727	          7.28768783	        -16.44364861	        -15.66236175	          4.30781963	         -3.53839484	         -4.51877058	         14.95611419	         -0.01421500	          0.72634997	         -0.16949816	         24.97246294	         -1.55839456	         -1.80245288	          2.25196581	        -12.47205142	        -13.59423072	          7.59757531	          6.84528129	        -13.58099973	         18.32456110	         13.34241657	         42.65842855	         86.51662706	         86.51662706	          0.40012731	          0.43575164	          0.47901954	          0.25368109	          0.22454000	          0.37230013	          0.08255066	          0.12572650	          0.17529581	          0.07011602	          0.05000025	          0.07011578	          0.16960504	          0.24103495	          0.22744501	          0.17734581	          0.05000006	          0.05920981	          0.12311061	          0.26609318	          0.20250363	          0.17147985	          0.05000003	          0.05000003	          0.40224774	          0.08786821	          0.19674996	          0.05000001	          0.20503283	          0.25098737	          0.19593805	          0.05000001	          0.05000002	          0.05000000	          0.05000000	          0.05000004	          0.05000003	          0.69913416	          0.34923829	          0.17076569	          0.68205388	          0.68877102	          0.40606753	          0.08483596	          0.07011599	          0.05708725	          0.26604444	          0.05814655	          0.05000000	          0.20749787	          0.12168030	          0.05921198	          0.05000077	          0.05000006	          0.05000006	          0.05000003	          0.06253527	          0.19245769	          0.22582966	          0.05000182	          0.05000034	          0.05000114	          0.19739455	          0.08061392	          0.05000010	          0.05000022	          0.05000014	          0.05000008	          0.22563625	          0.43770611	          0.05000001	          0.05000008	          0.05000004	          0.13209472	          0.09832488	          0.09832492	          0.09832487	          0.18087616	          0.24489139	          0.16476489	          0.15281275	          0.16916308	          0.21160303	          0.16999872	          0.11386102	          0.15684102	          0.32940076	          0.23701679	          0.13692722	          0.10720155	          0.05000000	          0.05000000	
